<svg width="155" height="48" viewBox="0 0 155 48" fill="none" xmlns="http://www.w3.org/2000/svg">
<path d="M46.5957 0V24.5572L38.0236 21.4088V12.8074L26.3918 38.2777H18.7381L8.57214 12.8074V24.7225V42.8177H0V23.5151V0H9.7355L23.3285 27.242L36.9214 0H46.5957Z" fill="#E6C30A"/>
<path d="M46.5864 26.446V30.0912C46.5864 32.2895 46.3119 34.0234 47.4686 35.2C48.6252 36.3456 48.8777 36.9184 50.9721 36.9184C53.0978 36.9184 54.739 36.3456 55.8956 35.2C57.0523 34.0234 57.6306 32.336 57.6306 30.1376L57.5837 20.1492L64.2421 11.9629V30.0912C64.2421 32.8469 63.6325 35.1845 62.4134 37.1042C61.2255 38.9929 59.6156 40.4172 57.5837 41.377C55.583 42.3369 53.3479 42.8168 50.8784 42.8168C48.44 42.8168 46.2206 42.3369 44.2199 41.377C42.2505 40.4172 40.6875 38.9929 39.5309 37.1042C38.3742 35.1845 38.0904 32.8933 38.0904 30.1376L38.0752 23.171L46.5864 26.446Z" fill="#E6C30A"/>
<path d="M75.7635 42.8176C73.8183 42.8176 72.0597 42.4506 70.4875 41.7167C68.9421 40.9829 67.7164 39.9261 66.8104 38.5464C65.9044 37.1667 65.513 32.279 65.4863 30.4003L71.4068 33.6587C71.4868 34.921 71.8865 35.9191 72.6059 36.653C73.352 37.3868 74.3645 37.7538 75.6436 37.7538C76.9492 37.7538 77.9751 37.4162 78.7212 36.741C79.4673 36.0365 79.8403 35.1265 79.8403 34.011C79.8403 33.101 79.5872 32.3524 79.0809 31.7653C78.5746 31.1782 77.9351 30.7232 77.1624 30.4003C76.4163 30.048 75.3771 29.6664 74.0448 29.2554C72.2329 28.6683 70.754 28.0959 69.6082 27.5381C68.4891 26.951 67.5165 26.085 66.6905 24.9402C65.8911 23.766 65.4914 22.2101 65.4914 20.2727C65.4914 18.4526 65.9044 16.8675 66.7305 15.5171C67.5565 14.1668 68.7156 13.1393 70.2078 12.4348C71.6999 11.7009 73.4053 11.334 75.3238 11.334C78.2016 11.334 80.5331 12.1119 82.3184 13.6677C84.1303 15.1942 85.4493 19.9087 85.6358 22.6681L79.1608 20.0965C79.1075 19.0398 78.6945 18.1738 77.9218 17.4986C77.1757 16.7941 76.1765 16.4418 74.9241 16.4418C73.8316 16.4418 72.9523 16.75 72.2862 17.3665C71.6467 17.983 71.3269 18.8783 71.3269 20.0525C71.3269 20.8745 71.5667 21.5643 72.0463 22.1221C72.5526 22.6505 73.1655 23.0908 73.8849 23.4431C74.631 23.766 75.6702 24.1476 77.0025 24.5879C78.8144 25.175 80.2933 25.7621 81.4391 26.3492C82.5848 26.9363 83.5707 27.817 84.3968 28.9912C85.2228 30.1654 85.6358 31.7066 85.6358 33.6147C85.6358 35.2586 85.2494 36.7851 84.4767 38.1941C83.704 39.6032 82.5715 40.7333 81.0793 41.5846C79.5872 42.4066 77.8152 42.8176 75.7635 42.8176Z" fill="#E6C30A"/>
<path d="M91.2267 10.7799C89.9841 10.7799 88.9431 10.3937 88.1035 9.62125C87.2975 8.81527 86.8945 7.82459 86.8945 6.6492C86.8945 5.47381 87.2975 4.49992 88.1035 3.72752C88.9431 2.92154 89.9841 2.51855 91.2267 2.51855C92.4692 2.51855 93.4935 2.92154 94.2995 3.72752C95.139 4.49992 95.5588 5.47381 95.5588 6.6492C95.5588 7.82459 95.139 8.81527 94.2995 9.62125C93.4935 10.3937 92.4692 10.7799 91.2267 10.7799ZM94.7025 14.1045V42.0116H87.6501V14.1045H94.7025Z" fill="#E6C30A"/>
<path d="M112.347 12.5938C115.652 12.5938 118.324 13.7231 120.361 15.9819C122.397 18.2048 123.403 20.542 123.403 24.5575V28.9652H116.404V26.3614C116.404 23.9951 115.853 22.1845 114.751 20.9296C113.649 19.6389 112.146 18.9935 110.243 18.9935C108.306 18.9935 106.77 19.6389 105.635 20.9296C104.533 22.1845 103.982 23.9951 103.982 26.3614V42.818H96.9697V13.024H103.982V16.7348C104.917 15.4441 106.102 14.4402 107.538 13.7231C109.007 12.9702 110.61 12.5938 112.347 12.5938Z" fill="#E6C30A"/>
<path d="M137.972 10.0752C140.144 10.0752 142.053 10.4448 143.7 11.1839C145.347 11.8935 146.643 12.8248 147.589 13.9778V10.4743H155V35.2206C155 37.4971 154.457 39.5224 153.371 41.2963C152.284 43.0998 150.655 44.5189 148.483 45.5537C146.31 46.6181 143.683 47.1503 140.599 47.1503C136.465 47.1503 133.066 46.3372 130.403 44.7111C127.776 43.085 126.287 40.8676 125.936 38.0589H133.241C133.627 39.1824 134.45 40.0693 135.712 40.7198C137.008 41.3998 138.567 41.7398 140.389 41.7398C142.526 41.7398 144.261 41.1928 145.592 40.0989C146.924 39.0346 147.589 37.4085 147.589 35.2206V31.4067C146.643 32.5597 145.329 33.5206 143.648 34.2893C142.001 35.058 140.109 35.4424 137.972 35.4424C135.519 35.4424 133.277 34.9102 131.244 33.8458C129.212 32.7815 127.6 31.2884 126.409 29.3667C125.253 27.4153 124.675 25.1831 124.675 22.6701C124.675 20.1866 125.253 17.984 126.409 16.0622C127.6 14.1404 129.195 12.6622 131.192 11.6274C133.224 10.5926 135.484 10.0752 137.972 10.0752ZM147.589 22.7588C147.589 21.2509 147.239 19.9648 146.538 18.9005C145.837 17.8066 144.891 16.9787 143.7 16.417C142.509 15.8257 141.23 15.53 139.864 15.53C138.497 15.53 137.236 15.8109 136.08 16.3726C134.923 16.9344 133.977 17.7622 133.241 18.8561C132.541 19.9205 132.19 21.1918 132.19 22.6701C132.19 24.1483 132.541 25.4492 133.241 26.5727C133.977 27.6666 134.923 28.5093 136.08 29.1006C137.271 29.6919 138.532 29.9875 139.864 29.9875C141.23 29.9875 142.509 29.7067 143.7 29.1449C144.891 28.5536 145.837 27.7258 146.538 26.6614C147.239 25.5675 147.589 24.2666 147.589 22.7588Z" fill="#E6C30A"/>
<path d="M123.916 31.4834V30.9834H123.416H116.489H115.989V31.4834V44.0768V44.5768H116.489H123.416H123.916V44.0768V31.4834Z" fill="#E6C30A" stroke="black"/>
</svg>
