<svg width="30" height="35" viewBox="0 0 30 35" fill="none" xmlns="http://www.w3.org/2000/svg">
<path id="Vector" d="M25.0824 18.4956C25.0664 15.6278 26.3895 13.4634 29.0675 11.8693C27.5691 9.7674 25.3055 8.61094 22.3167 8.38434C19.4872 8.16555 16.3948 10.0018 15.263 10.0018C14.0675 10.0018 11.3257 8.46248 9.17375 8.46248C4.72636 8.5328 0 11.9397 0 18.8706C0 20.9179 0.382572 23.0328 1.14772 25.2155C2.16791 28.0832 5.85016 35.1158 9.69182 34.9986C11.7003 34.9517 13.119 33.5999 15.7333 33.5999C18.2678 33.5999 19.5829 34.9986 21.8225 34.9986C25.6961 34.9439 29.0276 28.5521 30 25.6765C24.8034 23.2777 25.0824 18.644 25.0824 18.4956ZM20.5712 5.66509C22.7471 3.13338 22.5478 0.828276 22.4841 0C20.5632 0.109395 18.3395 1.28148 17.0723 2.72706C15.6775 4.27421 14.8565 6.18863 15.0319 8.34527C17.1121 8.50155 19.009 7.45448 20.5712 5.66509Z" fill="#777777"/>
</svg>
