<svg width="24" height="24" viewBox="0 0 24 24" fill="none" xmlns="http://www.w3.org/2000/svg">
<g id="carbon:laptop">
<path id="Vector" d="M18.8832 18.0306H4.54691C4.1668 18.0302 3.80238 17.879 3.5336 17.6103C3.26483 17.3415 3.11366 16.9771 3.11328 16.597V6.56156C3.11366 6.18145 3.26483 5.81702 3.5336 5.54825C3.80238 5.27947 4.1668 5.12831 4.54691 5.12793H18.8832C19.2633 5.12831 19.6277 5.27947 19.8965 5.54825C20.1653 5.81702 20.3164 6.18145 20.3168 6.56156V16.597C20.3163 16.977 20.165 17.3413 19.8963 17.6101C19.6276 17.8788 19.2632 18.03 18.8832 18.0306ZM4.54691 6.56156V16.597H18.8832V6.56156H4.54691Z" fill="#1B9145"/>
<path id="Vector_2" d="M1.67969 19.4639H21.7505V20.8975H1.67969V19.4639Z" fill="#1B9145"/>
</g>
</svg>
