<svg width="22" height="23" viewBox="0 0 22 23" fill="none" xmlns="http://www.w3.org/2000/svg">
<g id="ph:microphone-stage">
<path id="Vector" d="M17.3237 10.5928C18.0504 9.45161 18.2939 8.0685 18.0008 6.74774C17.7077 5.42697 16.9019 4.27675 15.7607 3.55009C14.6195 2.82344 13.2364 2.57988 11.9157 2.873C10.5949 3.16612 9.44467 3.9719 8.71801 5.11309L8.67876 5.1654L8.64797 5.2231C7.94322 6.35305 7.71048 7.7146 7.99986 9.0145C8.03808 9.19292 8.08684 9.36892 8.1459 9.54157L4.53362 17.7546C4.42416 18.0031 4.4074 18.2826 4.48638 18.5423C4.56537 18.8021 4.73485 19.025 4.96409 19.1704L6.17413 19.9409C6.40294 20.0871 6.67656 20.1464 6.94535 20.1081C7.21414 20.0698 7.46028 19.9364 7.63912 19.7321L13.553 12.9846C13.7344 12.965 13.9146 12.9348 14.0924 12.8939C15.3927 12.6063 16.5279 11.8194 17.2537 10.7028L17.2929 10.6505L17.3237 10.5928ZM16.8638 7.0473C17.0506 7.88419 16.9591 8.75919 16.6031 9.5393L9.97745 5.32041C10.4569 4.75987 11.0832 4.34416 11.7859 4.12001C12.4886 3.89587 13.2399 3.87217 13.9554 4.05158C14.6708 4.23099 15.322 4.6064 15.8358 5.13562C16.3496 5.66483 16.7056 6.32686 16.8638 7.0473ZM6.78299 18.9848L5.57295 18.2143L8.81491 10.8536C9.58953 11.9476 10.7622 12.6943 12.0812 12.9334L6.78299 18.9848ZM9.10785 8.7686C8.92106 7.9317 9.01261 7.0567 9.3686 6.2766L9.97745 5.32041L16.6031 9.5393C16.1237 10.0998 14.8885 11.4717 14.1858 11.6959C13.4831 11.92 12.7318 11.9437 12.0163 11.7643C11.3009 11.5849 10.6497 11.2095 10.1359 10.6803C9.62206 10.1511 9.26605 9.48903 9.10785 8.7686Z" fill="#C4C4C4"/>
</g>
</svg>
